<svg viewBox="0 0 70 55" xmlns="http://www.w3.org/2000/svg" xmlns:xlink="http://www.w3.org/1999/xlink" width="70.000000" height="55.000000" fill="none" customFrame="#000000">
	<path id="Vector" d="M57.1302 24.4676C57.1302 24.4676 58.0538 29.0346 58.2604 29.9922L54.2014 29.9922C54.6024 28.8996 56.1458 24.6518 56.1458 24.6518C56.1215 24.6886 56.5469 23.5346 56.7899 22.8225L57.1302 24.4676ZM70 5.89286L70 49.1071C70 52.3605 67.3872 55 64.1667 55L5.83333 55C2.61285 55 0 52.3605 0 49.1071L0 5.89286C0 2.63951 2.61285 0 5.83333 0L64.1667 0C67.3872 0 70 2.63951 70 5.89286ZM18.533 36.7321L26.2135 17.6786L21.0486 17.6786L16.2726 30.692L15.75 28.0525L14.0486 19.2868C13.7691 18.0714 12.9062 17.7277 11.8368 17.6786L3.97396 17.6786L3.88889 18.0592C5.80903 18.5502 7.52257 19.2623 9.01736 20.1585L13.3681 36.7321L18.533 36.7321ZM30.0052 36.7567L33.0677 17.6786L28.1823 17.6786L25.1319 36.7567L30.0052 36.7567ZM47.0069 30.5201C47.0312 28.3471 45.7188 26.6897 42.9115 25.327C41.1979 24.4554 40.1528 23.8661 40.1528 22.9699C40.1771 22.1596 41.0399 21.3248 42.9601 21.3248C44.5521 21.2879 45.7188 21.6685 46.5938 22.0491L47.0312 22.2578L47.6997 18.1328C46.7396 17.7522 45.2083 17.3225 43.3247 17.3225C38.5 17.3225 35.1094 19.9252 35.0851 23.6328C35.0486 26.3705 37.5156 27.8929 39.3628 28.8136C41.2465 29.7467 41.8906 30.3605 41.8906 31.183C41.8663 32.4598 40.3594 33.0491 38.9618 33.0491C37.0174 33.0491 35.9722 32.7422 34.3802 32.0301L33.7361 31.7232L33.0556 36.0078C34.1979 36.5357 36.3125 37.0022 38.5 37.0268C43.6285 37.0391 46.9705 34.4732 47.0069 30.5201ZM64.1667 36.7567L60.2292 17.6786L56.4497 17.6786C55.283 17.6786 54.3958 18.0223 53.8976 19.2623L46.6424 36.7567L51.7708 36.7567C51.7708 36.7567 52.6094 34.3996 52.7917 33.8962L59.0625 33.8962C59.2083 34.5714 59.6458 36.7567 59.6458 36.7567L64.1667 36.7567Z" fill="rgb(255,255,255)" fill-rule="nonzero" />
</svg>
